<?xml version="1.0" standalone="no"?><!DOCTYPE svg PUBLIC "-//W3C//DTD SVG 1.1//EN" "http://www.w3.org/Graphics/SVG/1.1/DTD/svg11.dtd"><svg t="1719740874918" class="icon" viewBox="0 0 1024 1024" version="1.1" xmlns="http://www.w3.org/2000/svg" p-id="4274" width="32" height="32" data-spm-anchor-id="a313x.search_index.0.i3.37db3a81tjp5GB" xmlns:xlink="http://www.w3.org/1999/xlink"><path d="M814.994286 379.977143a27.428571 27.428571 0 0 1-27.428572-27.428572v-49.371428a85.028571 85.028571 0 0 0-84.845714-84.845714h-49.005714a27.428571 27.428571 0 0 1 0-54.857143h48.822857a139.885714 139.885714 0 0 1 139.702857 139.702857v49.371428a27.428571 27.428571 0 0 1-27.245714 27.428572z" fill="#ffffff" p-id="4275"></path><path d="M702.902857 845.165714h-49.371428a27.428571 27.428571 0 0 1 0-54.857143h49.371428a85.028571 85.028571 0 0 0 84.845714-84.845714V656.457143a27.428571 27.428571 0 0 1 54.857143 0v48.822857a139.885714 139.885714 0 0 1-139.702857 139.885714z" fill="#ffffff" p-id="4276"></path><path d="M349.622857 845.165714h-49.005714a139.885714 139.885714 0 0 1-139.702857-139.885714v-49.371429a27.428571 27.428571 0 0 1 54.857143 0v49.371429a85.028571 85.028571 0 0 0 84.845714 84.845714h48.822857a27.428571 27.428571 0 0 1 0 54.857143z" fill="#ffffff" p-id="4277"></path><path d="M187.977143 379.428571a27.428571 27.428571 0 0 1-27.428572-27.428571v-48.822857a139.885714 139.885714 0 0 1 139.702858-139.702857h49.371428a27.428571 27.428571 0 1 1 0 54.857143h-49.371428a85.028571 85.028571 0 0 0-84.845715 84.845714v48.822857a27.428571 27.428571 0 0 1-27.428571 27.428571z" fill="#ffffff" p-id="4278"></path><path d="M349.805714 650.24a27.428571 27.428571 0 0 1-25.782857-36.571429l81.737143-223.451428a27.794286 27.794286 0 0 1 26.331429-18.285714 27.428571 27.428571 0 0 1 25.6 18.285714l70.948571 223.451428a27.428571 27.428571 0 1 1-52.297143 16.64l-46.628571-146.285714-54.857143 148.114286a27.428571 27.428571 0 0 1-25.051429 18.102857z" fill="#ffffff" p-id="4279"></path><path d="M612.205714 653.165714A27.428571 27.428571 0 0 1 585.142857 621.714286c0.914286-15.177143 0-143.725714 0-222.171429a27.428571 27.428571 0 0 1 27.245714-27.611428A27.428571 27.428571 0 0 1 640 399.177143c1.828571 223.817143 0 229.302857-0.914286 233.691428a27.428571 27.428571 0 0 1-26.88 20.297143z m0-27.428571z" fill="#ffffff" p-id="4280"></path><path d="M383.817143 550.765714h104.228571v54.857143h-104.228571z" fill="#ffffff" p-id="4281"></path></svg>