<?xml version="1.0" standalone="no"?><!DOCTYPE svg PUBLIC "-//W3C//DTD SVG 1.1//EN" "http://www.w3.org/Graphics/SVG/1.1/DTD/svg11.dtd"><svg t="1714798644854" class="icon" viewBox="0 0 1024 1024" version="1.1" xmlns="http://www.w3.org/2000/svg" p-id="23201" xmlns:xlink="http://www.w3.org/1999/xlink" width="32" height="32"><path d="M698.88 580.096l-32.768-16.896c-27.648-14.336-37.376-49.664-20.48-75.776l210.432-326.144c9.216-13.824 27.136-18.944 41.984-11.264 14.848 7.68 21.504 25.088 15.36 40.448l-141.312 361.472c-11.264 29.696-45.568 42.496-73.216 28.16zM708.608 663.04l-115.712-59.392c-10.24-5.12-14.336-17.92-9.216-28.672 5.12-10.24 17.92-14.336 28.672-9.216l115.712 59.392c10.24 5.12 14.336 17.92 9.216 28.672-5.632 10.24-17.92 14.336-28.672 9.216zM552.96 614.912l146.432 75.264s94.208 105.472-235.008 204.8c0 0 47.104-54.784 42.496-163.328-3.072-78.848 46.08-116.736 46.08-116.736z" fill="#ffffff" p-id="23202"></path><path d="M422.4 913.408c-2.048 0-4.096-0.512-6.656-1.024-239.616-62.976-316.928-180.736-325.12-240.128-5.12-37.888 2.048-69.632 20.48-93.696 35.84-46.08 103.936-54.272 169.984-62.464 91.648-11.264 131.584-20.992 129.536-66.56-3.072-66.56-126.464-108.544-225.28-141.824-27.648-9.216-53.76-17.92-77.312-27.136-13.312-5.12-19.456-19.968-14.336-33.28s19.968-19.456 33.28-14.336c22.528 8.704 48.128 17.408 75.264 26.624 119.808 40.448 256 86.528 260.096 187.904 4.096 97.792-94.72 110.08-174.592 119.808-55.296 6.656-113.152 13.824-135.68 43.008-10.24 13.312-13.312 31.232-10.24 55.808 4.608 35.328 65.536 139.264 287.232 197.632 13.824 3.584 22.016 17.408 18.432 31.232-3.584 10.752-13.824 18.432-25.088 18.432z" fill="#ffffff" p-id="23203"></path></svg>