<?xml version="1.0" standalone="no"?><!DOCTYPE svg PUBLIC "-//W3C//DTD SVG 1.1//EN" "http://www.w3.org/Graphics/SVG/1.1/DTD/svg11.dtd"><svg t="1714799545319" class="icon" viewBox="0 0 1024 1024" version="1.1" xmlns="http://www.w3.org/2000/svg" p-id="27041" xmlns:xlink="http://www.w3.org/1999/xlink" width="32" height="32"><path d="M494.3 618.2H382.9c-8.9 0-16.6 5.9-19 14.5l-22.7 83c-2.3 8.6-10.1 14.5-19 14.5h-46.4c-13.3 0-22.8-13-18.7-25.7l127.1-396.8c2.6-8.2 10.2-13.7 18.7-13.7h73.8c8.5 0 16.1 5.5 18.7 13.7L623 704.5c4.1 12.7-5.4 25.7-18.7 25.7H555c-8.9 0-16.6-5.9-19-14.5l-22.7-83c-2.3-8.6-10.1-14.5-19-14.5z m-3.8-67.8l-13-47.7c-13.4-45-25.2-94.7-38-141.5-0.2-0.7-0.8-1.1-1.5-1.1s-1.3 0.5-1.5 1.2c-11.1 47.4-24 96.4-36.9 141.5l-13 47.7h103.9zM702.3 294h47.9c10.9 0 19.7 8.8 19.7 19.7v396.8c0 10.9-8.8 19.7-19.7 19.7h-47.9c-10.9 0-19.7-8.8-19.7-19.7V313.7c0-10.8 8.8-19.7 19.7-19.7zM133.3 180.7c0-26.1 21.3-47.4 47.4-47.4h108.4v-70H180.7C116 63.3 63.3 116 63.3 180.7v107.5h70V180.7zM843.3 133.3c26.1 0 47.4 21.3 47.4 47.4v107.5h70V180.7c0-64.7-52.7-117.4-117.4-117.4H736.9v70h106.4zM890.7 843.3c0 26.1-21.3 47.4-47.4 47.4H736.9v70h106.4c64.7 0 117.4-52.7 117.4-117.4V736h-70v107.3zM180.7 890.7c-26.1 0-47.4-21.3-47.4-47.4V736h-70v107.3c0 64.7 52.7 117.4 117.4 117.4h108.4v-70H180.7z" p-id="27042" fill="#ffffff"></path></svg>