<?xml version="1.0" standalone="no"?><!DOCTYPE svg PUBLIC "-//W3C//DTD SVG 1.1//EN" "http://www.w3.org/Graphics/SVG/1.1/DTD/svg11.dtd"><svg t="1714797619734" class="icon" viewBox="0 0 1024 1024" version="1.1" xmlns="http://www.w3.org/2000/svg" p-id="22164" xmlns:xlink="http://www.w3.org/1999/xlink" width="32" height="32"><path d="M886.5 687.7l0.6-384.1L512.2 86.4 136.7 302.5l-0.6 433.2L511 952.9l164.3-94.5 40.5 94.4 89-147.8 147.7-89-66-28.3zM511.1 883.6l-315-182.4 0.5-363.9 315.5-181.5L827 338.2l-0.4 323.8-92.7-39.8 0.3-230.6L512 262.8 289.3 390.9l-0.4 256.9 222.3 128.8 103.4-59.5 36.8 85.8-140.3 80.7z m162.8-287.2l-136.3-58.5 53.1 123.7-79.4 45.7-162.3-94 0.3-187.6 162.6-93.6 162.3 94-0.3 170.3z" p-id="22165" fill="#ffffff"></path></svg>