<?xml version="1.0" standalone="no"?><!DOCTYPE svg PUBLIC "-//W3C//DTD SVG 1.1//EN" "http://www.w3.org/Graphics/SVG/1.1/DTD/svg11.dtd"><svg t="1714796716872" class="icon" viewBox="0 0 1024 1024" version="1.1" xmlns="http://www.w3.org/2000/svg" p-id="4301" xmlns:xlink="http://www.w3.org/1999/xlink" width="32" height="32"><path d="M775.447623 460.235033l0 1.617847L562.143539 461.85288l0-195.297988c-0.041956-1.223874-0.349971-2.358721-0.349971-3.606131 0-1.221828 0.308015-2.379187 0.349971-3.604084l0-1.113357 0.091074 0c2.574638-107.568924 90.153276-194.052624 198.312648-194.052624 109.775172 0 198.796672 88.994893 198.796672 198.770066C959.34291 367.634008 878.144586 452.479395 775.447623 460.235033zM461.853391 765.763564l-0.091074 0c-2.573615 107.552551-90.153276 194.056718-198.310601 194.056718-109.819175 0-198.795649-88.994893-198.795649-198.795649 0-104.661711 81.1973-189.506075 183.89324-197.263759l0-1.6158 213.304084 0 0 195.272405c0.041956 1.223874 0.391926 2.382257 0.391926 3.606131 0 1.26583-0.349971 2.381234-0.391926 3.63069L461.853391 765.763564zM461.853391 461.85288 248.549308 461.85288l0-1.617847c-102.69594-7.756661-183.89324-92.601025-183.89324-197.286272 0-109.775172 88.976474-198.770066 198.795649-198.770066 108.157325 0 195.736986 86.4837 198.310601 194.052624l0.091074 0 0 1.113357c0.041956 1.224898 0.391926 2.382257 0.391926 3.604084 0 1.24741-0.349971 2.382257-0.391926 3.606131L461.853391 461.85288zM562.143539 562.146097l213.304084 0 0 1.6158c102.69594 7.756661 183.895287 92.601025 183.895287 197.263759 0 109.800755-89.020476 198.795649-198.796672 198.795649-108.159372 0-195.73801-86.504166-198.312648-194.056718l-0.091074 0 0-1.108241c-0.041956-1.249457-0.349971-2.364861-0.349971-3.63069 0-1.223874 0.308015-2.382257 0.349971-3.606131L562.142515 562.146097z" fill="#ffffff" p-id="4302"></path></svg>