<?xml version="1.0" standalone="no"?><!DOCTYPE svg PUBLIC "-//W3C//DTD SVG 1.1//EN" "http://www.w3.org/Graphics/SVG/1.1/DTD/svg11.dtd"><svg t="1714800583314" class="icon" viewBox="0 0 1024 1024" version="1.1" xmlns="http://www.w3.org/2000/svg" p-id="32718" xmlns:xlink="http://www.w3.org/1999/xlink" width="32" height="32"><path d="M222.72 313.152c23.04 0 43.52 8.32 60.16 25.6 16.64 16.64 24.96 37.12 24.96 61.44 0 23.04-8.32 43.52-24.96 60.16-16.64 16.64-37.12 24.96-60.16 24.96-24.32 0-44.8-8.32-60.8-24.96-16.64-16.64-24.96-37.12-24.96-60.16 0-24.32 8.32-44.8 24.96-61.44 16-17.28 36.48-25.6 60.8-25.6zM915.2 32.192c32.64 0 58.88 10.88 78.72 32.64 19.84 21.76 30.08 46.72 30.08 74.88v630.4c0 17.92-6.4 33.28-19.2 46.08-12.8 12.16-28.16 18.56-46.72 18.56h-80.64v-142.08h50.56c8.32 0 16-2.56 22.4-8.96a33.92 33.92 0 0 0 0-46.08 33.152 33.152 0 0 0-22.4-8.96h-50.56v-91.52h50.56c8.32 0 16-3.2 22.4-9.6 5.76-5.76 8.96-13.44 8.96-21.76 0-8.96-3.2-16.64-8.96-23.04-6.4-6.4-14.08-10.24-22.4-10.24h-50.56v-83.2h50.56c8.32 0 16-3.2 22.4-8.96a33.92 33.92 0 0 0 0-46.08 33.152 33.152 0 0 0-22.4-8.96h-50.56v-98.56c0-43.52-10.24-74.88-30.08-92.8-20.48-17.92-55.04-26.88-103.68-26.88H293.12v-10.24c0-17.92 6.4-33.28 19.2-46.08 12.8-12.16 28.16-18.56 46.08-18.56z m-197.12 145.28c30.72 0 52.48 8.96 66.56 26.24 13.44 17.92 20.48 40.32 20.48 68.48v647.04c0 17.92-7.68 34.56-22.4 49.92-14.72 14.72-33.28 22.4-55.04 22.4H72.96c-19.2 0-35.84-7.68-50.56-23.04-14.72-16-22.4-33.92-22.4-55.04V254.912c0-23.04 6.4-41.6 18.56-55.68 12.8-14.72 28.8-21.76 49.28-21.76z m0.64 88.32c-8.32-9.6-21.12-14.72-39.04-14.72H120.96c-3.2 0-7.68 0.64-13.44 1.92-5.12 1.28-10.88 3.2-16 5.76-5.76 3.2-10.24 6.4-14.08 11.52a25.6 25.6 0 0 0-5.76 17.28v314.24c5.76 7.04 14.72 15.36 26.24 24.96 11.52 9.6 24.32 18.56 39.68 26.88s32 15.36 51.2 21.12c18.56 5.76 39.04 8.96 60.8 8.96 32.64 0 61.44-5.12 85.76-16 24.96-10.24 48-23.68 69.12-39.68 21.12-16 41.6-33.28 62.08-51.84 19.84-17.92 42.24-35.2 67.2-51.84 24.32-16.64 52.48-30.08 84.48-41.6 31.36-11.52 69.12-17.92 112.64-19.2v-163.2c0-13.44-3.84-24.96-12.16-34.56z" p-id="32719" fill="#ffffff"></path></svg>