<?xml version="1.0" standalone="no"?><!DOCTYPE svg PUBLIC "-//W3C//DTD SVG 1.1//EN" "http://www.w3.org/Graphics/SVG/1.1/DTD/svg11.dtd"><svg t="1714804369414" class="icon" viewBox="0 0 1024 1024" version="1.1" xmlns="http://www.w3.org/2000/svg" p-id="43742" xmlns:xlink="http://www.w3.org/1999/xlink" width="32" height="32"><path d="M961.06 568.52V808.2a83.17 83.17 0 0 1-83.16 83.17H140.73a83.17 83.17 0 0 1-83.17-83.18v-599.8a83.16 83.16 0 0 1 83.16-83.16h574.09a27.88 27.88 0 0 0 27.88-27.88 27.88 27.88 0 0 0-27.88-27.88H140.73A138.93 138.93 0 0 0 1.8 208.4v599.8a138.92 138.92 0 0 0 138.92 138.93h737.17a138.94 138.94 0 0 0 138.93-138.94V568.52a27.88 27.88 0 0 0-27.88-27.88 27.88 27.88 0 0 0-27.88 27.88z" fill="#ffffff" p-id="43743"></path><path d="M341 756.78a45.12 45.12 0 0 1-34.86-16.42c-81.29-98-255.51-62-257.26-61.6A28 28 0 0 1 37 624c2.11-0.45 52.34-11.17 115-7.29 37.4 2.32 71.65 9.37 101.81 21 33.37 12.82 61.73 31.21 84.53 54.75 20.83-43.08 54.9-100.24 106.43-151.33 33.93-33.64 71.56-60.65 111.86-80.29 47.86-23.34 100-36.54 155.1-39.24 57.95-2.84 109.72 3.38 153.89 18.49 36.45 12.47 67.83 31 93.27 55 43.62 41.15 54.65 83.83 55.76 88.56l-54.5 12.84v0.24c-0.08-0.32-8.64-32.72-42.17-63.15-45.13-41-115.5-60.32-203.56-56-201.36 9.88-299.12 179.77-331.8 252.35a45.37 45.37 0 0 1-35.48 26.48 46.61 46.61 0 0 1-6.14 0.37zM275.53 459.65a104 104 0 1 1 104-104 104.1 104.1 0 0 1-104 104z m0-152a48 48 0 1 0 48 48 48 48 0 0 0-48-47.96zM897.69 335a28 28 0 0 1-28-28V111.73a28 28 0 0 1 56 0V307a28 28 0 0 1-28 28z" fill="#ffffff" p-id="43744"></path><path d="M995.34 237.38H800a28 28 0 0 1 0-56h195.34a28 28 0 0 1 0 56z" fill="#ffffff" p-id="43745"></path></svg>