<?xml version="1.0" standalone="no"?><!DOCTYPE svg PUBLIC "-//W3C//DTD SVG 1.1//EN" "http://www.w3.org/Graphics/SVG/1.1/DTD/svg11.dtd"><svg t="1714796853019" class="icon" viewBox="0 0 1024 1024" version="1.1" xmlns="http://www.w3.org/2000/svg" p-id="5327" xmlns:xlink="http://www.w3.org/1999/xlink" width="32" height="32"><path d="M872.533333 341.333333l-53.333333 23.466667c-32-66.133333-83.2-119.466667-147.2-153.6-68.266667-36.266667-149.333333-49.066667-226.133333-34.133333-76.8 14.933333-145.066667 55.466667-196.266667 115.2C198.4 352 170.666667 426.666667 170.666667 505.6c-2.133333 78.933333 23.466667 153.6 72.533333 215.466667 49.066667 61.866667 115.2 104.533333 192 121.6 76.8 19.2 155.733333 10.666667 226.133333-23.466667 59.733333-29.866667 110.933333-76.8 145.066667-134.4 8.533333-14.933333 2.133333-34.133333-14.933333-42.666667l-19.2-8.533333c-17.066667-8.533333-34.133333 0-44.8 14.933333-25.6 40.533333-61.866667 72.533333-104.533334 93.866667-53.333333 25.6-113.066667 32-170.666666 19.2s-108.8-44.8-145.066667-91.733333c-36.266667-46.933333-55.466667-102.4-53.333333-162.133334 0-57.6 21.333333-115.2 59.733333-160 38.4-44.8 89.6-74.666667 147.2-87.466666 57.6-10.666667 117.333333-2.133333 168.533333 25.6 46.933333 25.6 85.333333 66.133333 108.8 115.2L682.666667 426.666667c-8.533333 4.266667-8.533333 17.066667 2.133333 19.2l113.066667 34.133333c14.933333 4.266667 32-2.133333 38.4-17.066667l49.066666-108.8c4.266667-8.533333-4.266667-17.066667-12.8-12.8z" fill="#ffffff" p-id="5328"></path></svg>